<?xml version="1.0" standalone="no"?>
<!DOCTYPE svg PUBLIC "-//W3C//DTD SVG 20010904//EN"
 "http://www.w3.org/TR/2001/REC-SVG-20010904/DTD/svg10.dtd">
<svg version="1.0" xmlns="http://www.w3.org/2000/svg"
 width="300.000000pt" height="300.000000pt" viewBox="0 0 300.000000 300.000000"
 preserveAspectRatio="xMidYMid meet">
<metadata>
Created by potrace 1.10, written by Peter Selinger 2001-2011
</metadata>
<g transform="translate(0.000000,300.000000) scale(0.100000,-0.100000)"
fill="#000000" stroke="none">
<path d="M1464 2876 c-9 -15 -15 -16 -32 -7 -33 18 -54 13 -140 -29 -44 -22
-85 -40 -92 -40 -6 0 -25 -8 -43 -17 -18 -9 -42 -16 -54 -14 -36 4 -59 -15
-96 -81 -23 -42 -39 -89 -47 -138 -19 -111 -44 -176 -84 -214 -25 -23 -37 -45
-42 -74 -6 -37 -14 -47 -73 -90 -36 -27 -88 -62 -116 -80 -27 -17 -92 -73
-142 -124 -107 -108 -121 -140 -80 -182 24 -23 110 -56 149 -56 13 0 17 -4 12
-12 -4 -7 7 0 24 16 18 17 32 25 32 19 0 -6 -7 -16 -15 -23 -8 -7 -15 -17 -15
-23 0 -6 14 2 32 19 l31 29 -23 -35 -23 -35 38 35 c28 26 35 29 26 13 -10 -20
-9 -23 14 -29 23 -6 24 -8 12 -23 -28 -33 -29 -45 -2 -21 27 25 27 24 -9 -43
-20 -38 -31 -65 -24 -61 7 5 -4 -13 -25 -38 -21 -26 -44 -49 -50 -52 -7 -2 -4
-5 7 -5 16 -1 15 -5 -10 -38 -19 -26 -23 -35 -11 -30 22 8 21 5 -4 -46 l-22
-42 22 19 c26 24 28 7 2 -25 -20 -26 -45 -103 -30 -94 5 4 9 12 9 19 0 15 39
67 40 53 0 -4 -6 -18 -14 -30 -17 -26 -33 -120 -17 -97 6 8 11 22 11 30 1 19
39 70 40 52 0 -7 -7 -28 -15 -48 -9 -21 -10 -32 -3 -28 8 5 9 0 4 -17 -4 -13
-10 -35 -13 -49 -5 -25 -5 -25 22 5 28 32 28 30 1 -29 -11 -24 -15 -49 -11
-67 9 -40 22 -45 18 -6 l-4 32 16 -28 c10 -17 14 -39 11 -53 -4 -13 -3 -36 1
-51 l7 -28 7 35 c6 34 6 34 8 -11 0 -25 8 -54 17 -65 14 -18 15 -18 9 6 -6 24
-5 24 9 6 19 -23 20 -49 6 -77 -13 -23 -3 -25 21 -3 16 14 18 12 25 -28 4 -24
7 -46 6 -50 -1 -5 2 -8 8 -8 5 0 10 15 10 34 0 19 5 38 10 41 6 4 10 -16 10
-54 0 -33 4 -62 9 -65 5 -4 7 2 5 12 -3 9 -1 28 5 42 9 22 10 20 10 -21 1 -29
8 -55 19 -68 17 -22 17 -21 15 41 -2 65 -1 63 20 -37 12 -58 12 -59 18 -25 5
34 6 33 14 -20 8 -49 10 -52 15 -25 6 30 6 30 14 -10 4 -22 14 -51 22 -65 l15
-25 -4 28 c-6 37 9 45 16 9 3 -16 15 -39 27 -53 l20 -24 -6 30 c-6 29 -6 29
12 13 13 -13 18 -31 17 -60 -1 -23 2 -49 7 -57 8 -13 9 -13 10 5 0 24 33 67
44 57 3 -3 6 -22 6 -42 0 -27 3 -32 10 -21 5 8 10 26 11 40 1 19 3 16 10 -13
11 -48 36 -97 50 -97 6 0 6 6 -1 19 -13 25 -13 84 0 76 6 -3 10 -16 11 -28 1
-20 2 -20 8 3 l7 25 7 -25 c4 -14 7 -38 8 -55 2 -26 3 -25 8 10 l7 40 12 -40
c13 -45 38 -85 53 -85 5 0 2 12 -8 27 l-17 28 27 -24 c29 -27 37 -19 10 11 -9
10 -12 18 -6 18 13 0 45 -38 63 -72 18 -37 27 -35 23 4 l-4 33 23 -26 c13 -14
29 -35 36 -45 11 -17 12 -15 8 16 -3 19 -9 55 -13 78 l-8 44 -23 -27 c-19 -22
-26 -24 -38 -14 -9 7 -13 21 -11 31 3 11 -5 30 -18 46 -30 34 -44 22 -16 -14
29 -37 26 -53 -4 -24 -14 13 -25 33 -25 44 -1 20 -1 20 -11 3 -10 -18 -13 -17
-40 9 -16 15 -29 35 -29 43 0 9 -9 34 -19 56 -17 35 -20 37 -21 15 -1 -24 -2
-23 -20 10 l-20 35 6 -55 c8 -66 -6 -57 -25 15 -6 28 -18 56 -26 64 -12 12
-13 11 -8 -7 8 -34 -11 -26 -26 10 -10 25 -15 29 -18 15 -6 -22 -23 -22 -23 1
0 9 -11 35 -25 57 l-24 40 -2 -55 -1 -55 -12 55 c-7 31 -27 85 -45 120 -32 63
-33 63 -27 25 18 -119 19 -115 -5 -65 -12 25 -24 71 -27 103 -6 72 -22 85 -22
18 0 -27 -4 -53 -10 -56 -6 -3 -10 4 -10 17 0 13 -7 46 -14 73 l-14 50 -12
-32 c-18 -48 -25 -40 -22 22 4 62 -24 205 -40 205 -6 0 -9 -33 -6 -90 2 -71 0
-87 -9 -74 -6 9 -15 35 -19 57 -7 39 -8 40 -15 17 -5 -17 -8 -5 -8 40 1 94 -1
100 -16 50 l-13 -45 -1 41 c-1 23 6 58 14 77 8 20 15 49 15 64 l-1 28 -13 -30
c-7 -17 -21 -37 -31 -45 -17 -14 -17 -13 -8 5 6 11 14 51 17 89 5 59 3 66 -9
56 -25 -21 -18 8 15 61 16 27 25 49 20 49 -5 0 -15 -9 -22 -20 -7 -11 -17 -20
-22 -20 -12 0 22 50 55 82 40 37 36 55 -4 24 -49 -37 -56 -32 -16 11 25 27 29
34 14 29 -19 -6 -13 0 76 80 41 37 72 74 60 74 -6 0 -26 -16 -45 -35 -42 -41
-60 -47 -25 -7 13 15 17 21 9 15 -35 -32 -28 -8 12 40 25 28 51 63 58 77 l13
25 -30 -27 c-61 -58 -50 -20 17 57 40 46 52 67 28 48 -24 -19 -48 -11 -49 16
0 14 -3 19 -6 11 -14 -43 -16 -44 -23 -15 -7 29 -8 28 -9 -10 -1 -30 -4 -36
-11 -25 -5 8 -10 27 -10 43 0 27 8 31 57 28 11 -1 23 1 26 6 3 4 51 7 107 5
80 -3 99 -6 87 -15 -8 -7 -22 -25 -32 -42 -13 -23 -8 -20 20 13 20 23 46 42
56 42 11 0 18 -4 15 -8 -3 -5 9 -6 26 -4 21 3 29 1 24 -7 -4 -6 -17 -11 -28
-11 -24 0 -113 -49 -104 -57 3 -3 16 1 29 10 39 25 103 40 134 32 25 -8 23 -9
-26 -16 -29 -4 -61 -14 -70 -24 -15 -15 -13 -15 21 0 43 17 93 21 68 5 -8 -5
-26 -10 -40 -10 -18 0 -21 -3 -11 -9 10 -6 3 -12 -25 -21 -22 -8 -33 -15 -26
-17 6 -3 10 -8 7 -13 -3 -4 16 -2 42 6 50 15 73 11 29 -5 -14 -6 -26 -13 -26
-16 0 -2 12 0 26 6 50 18 35 1 -20 -24 -50 -23 -97 -70 -83 -83 3 -3 10 4 17
15 18 35 144 91 215 96 l39 3 -24 -19 c-14 -10 -42 -22 -63 -25 -38 -7 -97
-46 -97 -66 0 -5 14 2 31 16 17 14 34 26 39 26 5 0 17 3 27 7 10 3 0 -10 -22
-30 -22 -20 -35 -36 -29 -37 6 0 17 7 24 16 8 8 23 20 34 26 21 11 21 11 0
-13 -30 -33 -44 -63 -44 -93 0 -14 -4 -28 -10 -31 -5 -3 -14 -25 -20 -48 -6
-23 -20 -60 -31 -83 -24 -52 -26 -93 -2 -49 13 23 18 26 21 13 2 -9 -2 -26 -8
-37 -9 -17 -8 -20 7 -14 13 5 15 3 9 -13 -17 -40 -19 -114 -4 -132 8 -9 26
-42 40 -72 14 -31 40 -73 58 -93 17 -20 28 -37 22 -37 -12 0 -72 67 -72 80 0
6 -6 9 -12 8 -8 -2 -14 12 -16 37 l-4 40 -19 -50 c-13 -32 -18 -62 -14 -82 6
-34 -8 -46 -19 -17 -9 24 -7 76 3 70 13 -8 22 54 14 94 -5 29 -8 31 -14 15 -5
-13 -8 6 -9 50 -1 39 -4 62 -7 53 -9 -36 -22 -16 -25 40 l-3 57 -22 -69 c-13
-37 -23 -87 -22 -110 l1 -41 9 39 c5 22 12 42 16 45 7 7 -4 -141 -13 -179 l-6
-25 21 25 c25 30 26 18 6 -40 -18 -52 -18 -60 0 -36 12 16 15 13 33 -45 19
-61 20 -62 21 -26 1 55 21 36 21 -21 0 -27 10 -67 22 -92 l21 -45 7 33 c11 47
27 60 22 18 -2 -20 4 -53 17 -82 21 -47 21 -47 1 -29 -24 22 -26 9 -4 -23 8
-12 22 -35 30 -50 7 -15 14 -21 14 -14 0 6 4 12 9 12 4 0 11 -19 14 -42 2 -24
8 -52 13 -62 5 -14 4 -17 -5 -12 -6 4 -26 37 -45 73 -31 62 -33 64 -34 34 -1
-55 -9 -46 -17 18 -8 69 -30 99 -23 33 2 -22 0 -38 -4 -36 -5 3 -8 26 -8 52 0
26 -9 65 -20 87 -18 36 -20 37 -15 10 3 -16 8 -52 10 -80 2 -27 1 -38 -1 -22
-3 15 -9 25 -13 22 -5 -2 -11 22 -15 55 -7 56 -33 147 -36 125 -1 -5 -1 -27 0
-49 2 -52 -17 -38 -26 19 -3 26 -1 58 5 77 19 53 -11 16 -32 -40 l-17 -47 5
70 c3 52 2 64 -6 46 -15 -36 -22 -18 -10 26 6 21 11 47 11 58 0 17 -2 17 -10
5 -14 -21 -13 84 1 133 15 56 5 56 -16 0 -10 -27 -22 -52 -27 -58 -16 -16 2
72 28 142 13 35 22 63 19 63 -2 0 -16 -21 -29 -48 -16 -30 -25 -40 -25 -27 -1
21 12 49 44 100 17 26 18 28 2 16 -33 -26 -27 -4 13 50 42 56 55 88 20 51 -23
-24 -36 -29 -23 -9 43 69 73 122 73 129 0 5 -18 -8 -39 -29 -21 -21 -57 -54
-80 -74 -23 -20 -41 -41 -41 -48 0 -7 16 4 37 24 39 38 60 40 25 2 -12 -13
-31 -49 -42 -81 -11 -33 -25 -65 -31 -72 -14 -17 2 -19 19 -2 18 18 14 2 -8
-34 -11 -18 -20 -46 -20 -63 l1 -30 14 30 c13 30 13 30 14 -25 1 -30 3 -86 6
-125 6 -83 -4 -66 -31 50 l-19 80 -5 -75 c-5 -73 -19 -77 -21 -7 0 18 -4 40
-8 51 -6 15 -10 10 -21 -23 -7 -22 -17 -41 -23 -41 -14 0 1 68 28 125 13 28
26 80 29 115 4 44 3 59 -3 45 -7 -14 -10 -16 -11 -5 0 8 -12 -5 -25 -30 -25
-46 -33 -43 -15 7 l10 28 -25 -30 c-14 -16 -25 -25 -25 -20 0 9 12 30 62 104
29 42 21 43 -18 3 l-35 -37 27 43 c26 40 59 141 49 150 -2 2 -10 -11 -18 -30
-8 -19 -29 -51 -47 -71 -23 -26 -27 -35 -14 -30 18 7 18 6 1 -17 -30 -41 -57
-104 -56 -130 0 -24 1 -23 16 8 9 17 20 32 25 32 9 0 -7 -44 -27 -73 -8 -12
-15 -31 -15 -42 0 -17 3 -15 18 10 20 32 52 63 52 50 0 -5 -14 -31 -32 -58
-25 -40 -33 -62 -35 -111 -2 -53 -2 -57 8 -31 21 61 42 105 50 105 4 0 4 -13
-1 -29 -9 -32 2 -98 24 -140 l14 -26 16 35 c15 34 15 33 10 -60 -3 -58 -1
-101 5 -110 8 -11 11 -4 12 30 l1 45 10 -35 c10 -36 34 -70 50 -70 5 0 1 11
-8 24 -8 14 -14 35 -12 48 3 18 8 12 23 -30 11 -28 22 -52 26 -52 3 0 11 12
18 26 15 34 25 25 11 -10 -12 -32 -12 -112 -1 -141 7 -17 9 -15 16 15 l8 35
12 -45 c6 -25 19 -58 28 -75 l17 -30 -6 43 c-9 59 2 53 20 -12 9 -30 20 -58
25 -61 5 -3 5 11 -1 31 -7 25 -6 40 1 47 8 8 11 5 11 -10 0 -27 25 -86 42
-101 11 -9 13 -3 10 29 -6 55 4 49 25 -17 l17 -57 13 29 c7 16 12 23 13 16 0
-7 11 -37 24 -65 13 -29 26 -68 30 -87 5 -27 11 -35 29 -36 23 -2 23 -1 -10
68 -19 39 -32 72 -30 74 7 7 44 -52 57 -91 11 -33 15 -37 23 -23 9 14 12 14
29 -6 19 -21 19 -21 13 27 -4 27 -2 47 3 47 14 0 22 -41 15 -70 -6 -23 -5 -24
11 -10 16 13 20 12 32 -5 8 -10 14 -22 14 -27 0 -4 5 -8 10 -8 18 0 10 57 -12
85 -19 24 -20 32 -11 66 12 46 0 51 -22 9 -9 -16 -22 -30 -29 -30 -7 0 -19 -7
-26 -15 -7 -8 -16 -15 -20 -15 -15 0 -33 57 -35 109 -1 43 3 58 20 76 22 21
23 21 45 3 29 -24 36 -23 57 8 14 23 15 32 4 73 -21 78 -34 75 -26 -5 5 -48 3
-74 -4 -78 -6 -4 -11 0 -11 8 0 9 -9 30 -20 48 -24 40 -26 61 -2 31 17 -22 17
-22 19 20 l1 42 -32 -36 c-18 -19 -38 -33 -44 -31 -15 5 -16 -34 -2 -43 12 -7
13 -35 2 -35 -12 0 -34 68 -27 82 4 7 0 5 -8 -5 -19 -23 -25 -14 -47 72 -13
53 -21 68 -43 79 -34 16 -35 30 -2 30 15 0 27 -8 30 -19 7 -20 55 -62 63 -54
3 3 -3 14 -12 24 -10 11 -20 39 -23 63 -3 24 -10 49 -16 56 -6 8 -6 12 1 12
15 0 30 -29 37 -70 3 -18 11 -42 18 -54 l12 -21 3 21 c1 11 -2 40 -7 64 -5 25
-9 46 -7 47 2 2 23 -4 47 -13 24 -9 83 -18 132 -21 48 -3 87 -7 87 -9 0 -2 -5
-14 -11 -28 -14 -29 -5 -71 16 -80 22 -8 49 38 41 70 -9 34 -18 25 -23 -23 -5
-47 -10 -52 -18 -21 -4 14 0 40 8 59 12 28 22 36 62 47 26 7 49 11 50 10 2 -2
-1 -25 -5 -53 -4 -27 -5 -54 -2 -59 7 -13 31 35 32 65 0 15 9 37 21 50 18 21
20 21 13 4 -4 -11 -9 -36 -12 -55 -2 -19 -13 -47 -24 -62 -11 -16 -15 -28 -9
-28 17 0 50 37 56 63 5 19 11 23 36 19 16 -2 29 -7 29 -10 0 -3 -17 -20 -39
-38 -38 -33 -70 -89 -57 -102 10 -9 26 19 26 46 0 12 5 22 11 22 14 0 3 -49
-17 -71 -8 -8 -14 -26 -14 -38 0 -13 -4 -19 -10 -16 -6 4 -17 1 -25 -5 -11 -9
-15 -9 -15 -1 0 6 7 14 15 17 12 5 13 10 4 20 -19 23 -32 4 -25 -36 4 -29 2
-41 -13 -54 -18 -16 -18 -15 -14 31 3 26 10 56 15 67 8 14 7 17 -4 14 -18 -6
-40 -77 -33 -106 3 -12 17 -27 30 -32 28 -11 30 -24 10 -60 -8 -14 -14 -42
-15 -62 0 -24 -8 -46 -24 -65 -20 -24 -26 -25 -40 -14 -14 12 -16 11 -16 -5 0
-11 -11 -41 -25 -68 -19 -39 -25 -44 -25 -25 0 13 9 38 20 54 25 37 25 55 3
49 -14 -4 -23 8 -42 55 -23 59 -41 71 -41 28 0 -13 7 -33 16 -45 16 -23 20
-60 12 -119 -2 -20 5 -54 18 -85 l22 -53 13 28 c26 57 36 22 14 -48 -6 -20 -6
-20 10 0 9 11 26 35 38 54 12 19 28 37 36 39 11 4 10 -1 -2 -19 -26 -36 -20
-44 8 -12 13 15 25 23 25 16 0 -6 -4 -15 -10 -18 -5 -3 -10 -11 -10 -17 0 -26
42 30 52 69 13 53 29 67 21 18 -4 -22 -2 -35 5 -35 6 0 9 6 7 13 -2 6 0 28 4
47 l9 35 2 -30 2 -30 9 33 c14 48 22 39 17 -20 l-5 -52 18 23 c11 13 22 42 26
65 l6 41 13 -35 12 -35 1 30 c2 52 17 61 33 19 l15 -37 7 38 c9 47 33 95 47
95 6 0 6 -8 -1 -21 -7 -11 -10 -23 -7 -25 8 -8 47 48 47 67 0 10 5 21 12 25 8
5 9 -2 5 -24 -4 -18 -4 -32 -1 -32 9 0 34 68 35 97 l1 28 7 -30 c7 -28 8 -26
18 25 8 41 11 47 13 25 l2 -30 13 35 c7 19 14 51 15 70 2 32 3 33 9 10 5 -14
6 -41 4 -60 l-4 -35 15 25 c8 14 16 45 17 70 l1 45 13 -40 c11 -34 14 -36 16
-15 1 14 1 42 0 62 -2 22 2 38 8 38 6 0 11 -15 11 -34 0 -19 5 -38 10 -41 6
-4 10 6 10 22 1 27 29 91 30 67 0 -7 7 -14 15 -18 13 -4 13 -2 5 14 -14 26
-13 43 6 66 15 18 15 18 10 0 -6 -16 -4 -17 9 -6 9 8 16 31 16 64 l2 51 7 -40
6 -40 8 37 c5 21 6 44 3 52 -3 8 -1 16 5 18 14 5 -76 60 -177 111 -91 45 -112
51 -118 35 -2 -7 -3 -5 -2 4 2 13 -20 23 -97 48 -54 17 -106 29 -114 26 -8 -3
-13 -2 -10 3 3 5 -22 14 -57 21 -34 8 -54 15 -44 17 9 3 50 -3 90 -12 149 -34
320 -102 450 -179 43 -25 80 -46 82 -46 2 0 5 6 8 12 2 7 3 5 2 -4 -2 -10 1
-21 7 -24 7 -4 6 -9 -2 -14 -8 -5 0 -14 23 -29 19 -11 45 -41 58 -66 13 -25
27 -45 31 -45 4 0 41 -34 83 -76 42 -41 80 -73 83 -70 3 4 -7 19 -22 35 -23
24 -26 33 -17 48 10 17 10 16 11 -5 0 -13 4 -20 10 -17 6 3 10 -3 10 -14 l0
-21 40 21 39 21 -31 30 c-22 21 -33 27 -41 19 -6 -6 -19 -11 -28 -11 -9 0 -20
-10 -24 -22 -6 -20 -8 -21 -12 -5 -5 21 22 46 50 47 24 0 22 6 -18 46 -27 27
-37 31 -41 20 -8 -20 -34 -29 -34 -11 0 8 7 15 15 15 8 0 15 5 15 10 0 13 -13
13 -27 -1 -6 -6 -17 -9 -25 -6 -9 4 -5 8 10 12 25 8 30 25 7 25 -8 0 -15 -4
-15 -10 0 -5 -9 -10 -21 -10 -11 0 -18 4 -15 9 4 5 0 12 -6 15 -7 3 -1 3 13 0
15 -3 30 -1 33 5 5 7 -6 11 -31 11 -24 0 -52 9 -75 25 -33 22 -37 29 -32 55 4
20 -1 43 -15 72 l-22 43 27 -30 27 -30 -6 30 c-3 17 -9 38 -12 48 -6 14 -3 16
11 10 18 -6 18 -5 3 13 -9 10 -19 33 -23 49 -7 27 -6 28 8 15 8 -8 22 -33 30
-55 14 -39 15 -39 15 -10 0 17 -8 49 -19 73 -23 51 -9 47 21 -6 19 -36 20 -36
14 -7 -3 17 -18 47 -31 68 -25 39 -28 61 -4 32 25 -31 28 -14 4 29 -24 44 -24
44 -3 39 19 -5 19 -4 -5 20 -26 26 -34 47 -17 47 5 0 -9 19 -30 42 -21 23 -36
44 -34 48 2 3 -12 34 -30 69 -33 61 -33 63 -8 40 23 -22 25 -22 15 -3 -6 11
-18 26 -26 33 -9 8 -14 17 -11 21 3 5 1 11 -5 15 -18 11 -11 35 10 35 11 0 20
-6 20 -12 0 -7 12 5 26 27 24 38 25 34 7 -25 -3 -8 7 3 22 25 14 22 23 31 20
20 -17 -47 -15 -57 5 -22 20 37 38 51 26 22 -4 -12 6 -15 57 -17 102 -4 161 2
185 18 l23 15 -23 40 c-30 53 -110 126 -187 168 -34 19 -112 75 -174 124 -61
49 -126 96 -143 103 -24 10 -34 23 -44 58 -7 25 -23 56 -35 68 -36 36 -89 183
-95 263 l-5 70 -41 20 c-23 11 -60 37 -83 58 l-41 37 -103 0 c-100 0 -104 1
-117 25 -13 23 -14 24 -26 7 -7 -10 -11 -27 -9 -38 2 -10 4 -26 6 -34 1 -8 5
1 9 20 6 29 9 32 14 15 6 -19 14 -20 111 -17 l104 3 38 -34 c21 -19 57 -44 81
-56 41 -21 42 -22 42 -74 0 -37 10 -79 35 -140 39 -96 39 -97 25 -97 -5 0 -10
5 -10 11 0 6 -14 45 -31 87 -21 50 -32 96 -33 131 -1 35 -6 55 -14 57 -7 1 -8
0 -3 -2 5 -3 8 -21 5 -40 -2 -19 -6 -50 -8 -69 -4 -25 -1 -34 7 -29 7 3 1 -4
-13 -15 -27 -22 -21 -28 11 -11 10 6 19 7 19 2 0 -5 -15 -16 -32 -25 -26 -12
-29 -16 -13 -17 20 -1 20 -1 1 -15 -25 -19 -18 -19 30 1 22 9 36 13 31 8 -4
-4 0 -16 10 -26 18 -20 17 -20 -27 -22 -35 -1 -40 10 -9 19 11 4 18 9 16 12
-3 2 -17 -2 -32 -10 -20 -10 -40 -11 -74 -6 -25 5 -63 11 -83 14 -26 4 -38 11
-39 23 0 14 -2 14 -8 -3 -7 -18 -9 -17 -19 10 -11 28 -12 28 -7 3 6 -34 -22
-33 -40 2 l-13 23 -6 -21 c-7 -21 -13 -22 -115 -22 -104 0 -357 -35 -446 -62
-22 -6 -42 -12 -45 -13 -3 0 -11 -4 -17 -8 -18 -11 -16 8 2 23 8 7 12 16 10
21 -3 4 5 6 17 4 23 -4 23 -4 3 12 -20 15 -20 15 0 11 15 -4 21 0 22 13 2 21
-23 26 -30 7 -3 -7 -4 -3 -4 9 1 12 5 19 11 16 5 -4 7 1 3 10 -3 9 -1 18 6 21
9 3 9 5 0 5 -7 1 -13 6 -13 12 0 5 6 7 13 3 7 -5 6 0 -3 11 -9 11 -10 16 -2
11 8 -5 11 -1 8 16 -2 13 5 40 15 60 30 60 21 58 -11 -2 -16 -30 -29 -66 -30
-80 0 -29 -25 -131 -41 -172 -18 -44 -30 -33 -14 12 8 23 21 78 30 123 24 124
77 217 126 217 26 0 24 -10 -12 -59 -17 -24 -28 -45 -26 -48 3 -2 26 24 51 60
36 50 54 66 84 75 21 7 69 28 106 47 90 47 128 46 148 -4 l11 -26 7 30 c7 32
15 23 23 -25 4 -20 5 -19 6 8 0 17 6 32 11 32 6 0 10 9 10 20 0 11 -4 20 -10
20 -5 0 -10 -4 -10 -10 0 -17 -18 -11 -22 8 -3 16 -4 16 -14 -2z m227 -436
c133 -13 247 -35 303 -60 35 -15 49 -28 61 -57 9 -20 14 -44 12 -53 -2 -9 -11
3 -22 28 -10 25 -29 49 -45 57 -36 19 -169 55 -195 54 -14 -1 -11 -4 10 -10
23 -6 15 -7 -30 -5 -33 2 -46 1 -30 -2 30 -6 29 -6 -10 -13 -29 -6 -21 -7 30
-4 43 2 59 1 40 -4 -29 -7 -28 -8 20 -16 l50 -8 -50 -12 -50 -11 44 -8 c24 -3
46 -4 49 -1 3 3 -6 5 -19 6 -16 1 -9 5 21 13 l45 13 -45 8 c-25 4 -40 10 -33
12 6 2 31 -1 54 -7 31 -9 39 -14 28 -21 -12 -7 -12 -9 1 -9 13 0 13 -2 1 -9
-12 -8 -12 -10 0 -13 8 -3 1 -3 -16 -1 -24 3 -27 2 -15 -7 12 -8 10 -9 -10 -5
-73 16 -196 26 -380 31 -113 3 -245 12 -293 20 -111 19 -126 12 -20 -9 60 -13
66 -15 28 -12 -27 2 -66 6 -85 9 -29 5 -27 3 10 -8 45 -14 27 -20 -19 -7 -23
6 -40 41 -20 41 6 0 8 4 5 8 -3 5 25 3 62 -4 37 -7 78 -13 92 -13 14 1 -8 7
-49 15 -84 15 -116 27 -53 19 126 -15 130 -15 72 -1 -44 10 -50 14 -30 18 14
3 0 3 -30 0 -30 -2 -91 -17 -135 -33 -147 -51 -151 -54 -170 -104 -18 -45 -42
-64 -30 -22 23 73 35 86 114 116 99 38 141 48 287 71 138 21 298 24 445 10z
m-610 -114 c-6 -7 -28 -16 -49 -20 -20 -3 -48 -8 -62 -11 -14 -3 -2 6 25 19
57 28 105 35 86 12z m615 -26 c159 -13 316 -36 383 -56 30 -8 77 -35 113 -65
141 -111 225 -172 270 -195 49 -25 128 -89 128 -105 0 -4 -16 -1 -35 7 -19 7
-42 14 -52 14 -9 0 -30 12 -47 28 -17 15 -24 19 -17 9 25 -32 3 -30 -24 2 -15
17 -32 31 -38 31 -6 0 0 -11 12 -24 23 -25 23 -25 -55 6 -92 36 -179 45 -278
30 -83 -13 -119 -37 -40 -27 46 7 53 5 69 -16 l17 -24 -5 23 c-7 30 9 28 29
-3 9 -14 19 -23 22 -21 2 3 -3 17 -12 31 l-16 25 54 0 c30 0 57 -4 61 -10 3
-5 12 -7 20 -3 19 7 19 -14 0 -47 -8 -14 -14 -37 -15 -52 0 -36 -20 -47 -21
-11 l-1 28 -7 -25 c-7 -24 -8 -24 -16 10 -8 34 -8 35 -12 7 l-4 -28 -20 23
-20 23 11 -23 c11 -22 10 -23 -11 -11 -21 11 -20 9 5 -22 67 -84 78 -100 72
-106 -3 -4 -17 4 -31 17 -14 13 -25 19 -25 14 0 -9 20 -35 89 -117 14 -16 13
-17 -5 -11 -16 6 -16 3 6 -22 13 -16 3 -9 -22 15 -80 76 -64 38 19 -45 43 -42
72 -74 64 -69 -8 5 -2 -8 13 -28 33 -43 26 -47 -21 -11 -42 32 -43 18 -2 -22
17 -16 38 -42 46 -59 l16 -30 -27 24 c-32 30 -34 17 -3 -29 27 -40 47 -99 23
-67 -12 16 -14 15 -18 -14 -5 -32 3 -89 17 -123 14 -34 -13 -8 -35 32 -26 50
-25 19 1 -62 13 -38 18 -73 14 -83 -6 -14 -10 -10 -20 22 l-13 40 -1 -33 -1
-33 -38 21 c-37 21 -37 22 -37 81 0 32 1 59 2 59 6 0 28 -50 39 -90 l12 -45 1
54 c1 44 -6 66 -35 120 l-35 66 41 -44 c34 -37 39 -40 31 -18 -6 15 -18 41
-26 58 -9 17 -14 36 -12 42 3 7 12 -4 21 -23 l17 -35 -4 42 c-3 25 -18 60 -38
89 -23 33 -27 45 -15 41 20 -8 14 4 -24 46 -14 16 -31 43 -38 60 l-12 32 4
-42 c4 -41 15 -69 50 -128 15 -25 12 -23 -19 10 -36 39 -40 21 -5 -20 22 -25
53 -85 47 -91 -2 -3 -14 10 -27 28 -12 18 -19 24 -15 13 4 -11 9 -31 11 -45 3
-19 0 -16 -14 12 -25 51 -33 58 -22 18 5 -19 8 -36 5 -38 -2 -2 -9 14 -15 37
-6 23 -13 41 -16 41 -14 0 11 -122 38 -183 35 -82 36 -137 1 -72 -18 32 -22
36 -23 18 0 -14 -6 -23 -15 -23 -9 0 -15 10 -16 23 -1 16 -2 18 -6 5 -2 -10
-9 -18 -14 -18 -12 0 -29 44 -29 73 0 24 16 12 23 -18 3 -12 5 -7 6 14 0 19
-9 50 -21 70 -11 20 -15 30 -8 24 27 -25 28 -13 4 45 -13 31 -24 62 -24 68 0
6 -7 17 -16 24 -8 8 -20 22 -26 33 -10 19 -8 19 21 -2 17 -12 35 -30 41 -39 8
-14 9 -15 10 -1 0 8 -36 48 -80 88 -85 77 -94 69 -30 -24 37 -54 38 -66 4 -34
l-27 24 17 -30 c9 -16 28 -45 42 -64 26 -37 25 -52 -3 -30 -19 16 -16 10 24
-50 13 -19 23 -45 23 -60 0 -23 -2 -22 -21 14 -34 65 -41 64 -14 -3 14 -34 25
-68 25 -77 0 -23 -19 -18 -30 8 -6 16 -9 18 -9 5 -2 -32 -26 -8 -28 27 -2 19
-13 60 -25 92 l-23 58 -3 -65 c-3 -61 -4 -64 -17 -40 -14 24 -14 24 -8 -12 4
-31 2 -38 -11 -38 -9 0 -18 11 -22 28 -3 15 -10 40 -15 56 -7 23 -6 27 6 22
11 -4 12 0 5 20 -6 14 -10 30 -10 35 0 16 21 -1 30 -25 9 -21 9 -21 9 3 1 13
-7 42 -18 65 -22 50 -38 95 -56 160 -8 27 -26 62 -41 77 -15 16 -23 29 -16 29
6 0 13 -4 17 -10 3 -5 20 -19 38 -31 28 -18 26 -15 -10 20 -23 23 -38 41 -32
41 16 0 51 -20 76 -43 35 -31 38 -14 4 22 -18 19 -39 31 -55 31 -29 0 -96 29
-96 42 0 5 13 2 30 -7 40 -21 47 -19 19 5 -19 15 -4 12 61 -14 47 -18 100 -47
118 -63 36 -34 42 -29 11 11 -11 14 -43 36 -71 48 -28 12 -46 24 -40 26 7 2
10 7 8 11 -3 4 13 7 34 6 21 0 36 -3 34 -6 -2 -4 3 -10 12 -13 8 -3 12 -2 9 4
-3 6 2 10 12 11 10 0 0 7 -21 15 -45 16 -63 30 -28 21 12 -3 20 -1 16 4 -3 5
-18 9 -34 9 -16 0 -32 5 -36 11 -7 11 36 7 84 -7 9 -3 6 2 -8 10 -14 8 -45 16
-70 16 -40 1 -42 2 -20 11 31 12 74 5 125 -21 21 -11 40 -18 43 -16 8 8 -73
56 -95 56 -12 0 -25 5 -29 11 -5 9 1 10 20 5 18 -4 25 -3 21 4 -12 20 -60 10
-117 -25 -77 -46 -129 -59 -173 -45 -35 11 -85 61 -85 83 0 7 7 3 15 -7 8 -11
15 -16 15 -10 0 5 5 1 11 -9 6 -9 14 -15 20 -12 5 4 9 1 9 -5 0 -7 7 -10 15
-6 10 3 15 -1 15 -12 0 -15 2 -15 10 -2 9 13 10 13 10 0 1 -9 6 -5 15 10 11
19 14 21 15 8 0 -17 6 -17 48 -1 9 3 21 7 25 7 4 1 11 7 16 14 5 8 11 13 15
13 13 -1 36 11 32 18 -2 3 12 6 32 5 28 -1 30 0 8 3 -22 3 -26 7 -16 13 8 5
11 12 8 16 -4 3 -23 -4 -42 -16 -20 -12 -36 -17 -36 -11 0 6 6 11 13 11 13 1
50 70 36 70 -4 0 -11 -9 -14 -20 -7 -23 -45 -48 -45 -30 0 6 5 20 10 31 6 11
7 19 1 19 -5 0 -14 -13 -19 -30 -11 -29 -11 -29 -74 -24 -46 5 -91 0 -168 -17
-92 -20 -126 -23 -270 -20 -91 2 -216 4 -277 5 -108 1 -113 2 -107 21 5 20 5
20 -13 0 -18 -21 -53 -40 -53 -29 0 3 9 19 21 36 12 16 19 32 16 35 -3 2 -16
-11 -29 -31 -13 -20 -28 -36 -35 -36 -6 0 -19 -10 -27 -22 -9 -12 -16 -18 -16
-13 0 5 18 35 40 66 22 32 40 60 40 64 0 15 -32 -20 -57 -62 -13 -24 -31 -43
-38 -43 -8 0 -19 -8 -24 -17 -6 -10 -11 -13 -11 -8 0 6 18 36 40 68 22 31 40
60 40 63 0 14 -33 -22 -57 -63 -13 -24 -31 -43 -39 -43 -11 0 -34 -28 -34 -42
0 -2 19 -2 42 -2 37 1 48 -3 76 -34 30 -33 32 -38 21 -64 -16 -39 -27 -43 -50
-22 -15 14 -40 19 -92 21 -78 3 -152 25 -166 50 -11 21 -3 50 17 58 33 13 100
17 118 7 16 -8 25 -1 56 49 21 33 33 59 28 59 -4 0 -18 -16 -30 -35 -19 -30
-26 -34 -58 -32 -20 1 -54 -2 -75 -6 l-38 -8 68 68 c38 37 91 83 118 102 l50
34 -34 -36 c-22 -24 -30 -37 -20 -37 10 -1 7 -6 -8 -19 -12 -10 -19 -21 -16
-25 11 -10 23 -7 21 7 -2 6 3 11 11 9 9 -2 12 4 8 17 -8 30 115 144 195 180
78 35 196 68 308 86 105 16 354 18 526 5z m44 -394 l-22 -21 7 25 c9 28 28 45
34 29 2 -6 -7 -21 -19 -33z m-60 20 c0 -22 -20 -30 -21 -9 0 16 -1 16 -9 -2
-8 -19 -9 -19 -9 -1 -1 15 -4 16 -16 6 -13 -11 -14 -10 -9 4 8 21 64 22 64 2z
m775 -46 c128 -34 149 -44 125 -61 -14 -9 -162 -7 -205 4 -11 3 -47 -4 -78
-15 -63 -21 -79 -19 -55 9 9 10 26 38 38 61 15 32 26 43 38 39 9 -3 71 -19
137 -37z m-1007 8 c-45 -67 -117 -80 -203 -35 -73 38 -86 48 -55 44 30 -5 60
-16 79 -31 21 -17 41 -16 41 2 0 14 2 15 9 3 12 -19 51 -25 51 -8 0 8 4 7 10
-3 8 -13 10 -12 10 3 0 10 5 15 10 12 6 -3 13 1 16 9 3 9 10 14 14 11 5 -3 11
-1 15 5 3 5 9 10 12 10 3 0 -1 -10 -9 -22z m87 -18 c14 -27 14 -30 0 -30 -8 0
-15 3 -15 8 0 4 -3 17 -6 30 -9 31 3 27 21 -8z m-297 -56 c12 -4 22 -10 22
-15 0 -13 -47 -22 -76 -15 -21 6 -24 9 -14 21 13 16 32 18 68 9z m581 -3 c38
-24 -30 -42 -72 -19 l-22 12 25 7 c35 10 53 10 69 0z m-266 -19 c-52 -12 -68
-12 -117 0 l-57 14 117 0 117 0 -60 -14z m-53 -24 c25 0 64 4 86 7 26 4 50 2
63 -5 27 -14 46 -59 31 -74 -7 -7 -10 -6 -10 4 0 47 -77 66 -124 29 -25 -20
-35 -62 -17 -73 4 -3 6 7 4 22 l-4 27 16 -27 c10 -19 24 -28 40 -28 32 0 40
16 15 30 -26 14 -26 30 1 30 24 0 59 -17 59 -30 0 -15 -67 -50 -96 -50 -16 0
-37 7 -48 15 -16 12 -21 12 -40 0 -27 -20 -71 -19 -107 2 -46 28 -34 63 22 63
26 0 24 -26 -3 -34 -17 -4 -20 -8 -11 -17 17 -17 56 -6 71 21 l13 25 -4 -28
c-4 -26 -3 -27 10 -14 33 33 -20 87 -85 87 -28 0 -54 -20 -65 -50 -3 -8 -6 -3
-6 13 -1 15 8 36 20 48 19 19 28 20 73 14 28 -4 71 -7 96 -7z m-92 -189 l92
-48 48 27 c26 16 65 37 87 47 24 12 47 33 56 52 l16 32 30 -32 c53 -56 71
-107 31 -86 -18 9 -16 4 10 -23 36 -38 52 -82 52 -145 0 -44 -14 -63 -33 -44
-6 6 -7 11 -1 11 14 0 11 47 -3 62 -7 6 -13 8 -13 2 0 -5 6 -16 13 -24 6 -8
-3 -2 -20 14 -36 33 -45 25 -12 -10 11 -12 21 -29 23 -37 1 -8 7 -21 14 -29
13 -17 42 -94 42 -114 0 -8 -7 -14 -15 -14 -9 0 -15 9 -15 24 0 14 -5 28 -10
31 -7 4 -9 -2 -4 -19 7 -31 -6 -34 -23 -6 -20 31 -67 50 -150 60 -47 6 -88 17
-103 29 -25 18 -27 18 -48 0 -13 -10 -48 -20 -80 -24 -83 -9 -139 -25 -158
-46 -15 -17 -13 -17 22 2 31 16 59 19 154 19 138 0 202 -15 258 -60 32 -25 52
-33 87 -35 24 0 48 -4 52 -8 15 -15 -32 -120 -74 -167 -60 -67 -111 -85 -238
-85 -91 0 -105 3 -160 30 -72 36 -117 91 -144 178 -11 34 -20 55 -21 47 0 -12
-3 -11 -11 3 -14 24 -3 82 23 127 11 19 22 43 24 54 2 10 13 30 25 43 13 12
18 23 11 23 -16 0 -54 -52 -48 -66 3 -7 -1 -17 -8 -23 -11 -9 -15 -3 -20 28
-11 71 14 148 60 177 13 9 22 19 20 22 -3 3 -12 -1 -21 -8 -42 -35 -22 30 26
85 l33 37 15 -33 c13 -26 36 -43 109 -80z m127 5 c-24 -18 -59 -18 -74 0 -10
12 -8 15 11 18 13 2 36 1 52 -1 28 -4 28 -5 11 -17z m334 -441 c-1 -21 -1 -51
0 -68 l1 -30 19 24 19 24 -9 -51 c-13 -83 -33 -100 -36 -29 -2 63 -14 118 -24
111 -5 -3 -9 -21 -9 -40 0 -19 -4 -33 -9 -30 -5 3 -16 -5 -25 -19 -20 -30 -57
-65 -69 -65 -5 0 9 21 32 46 22 25 45 62 52 82 13 41 39 81 52 82 5 0 8 -17 6
-37z m115 -5 c31 -14 39 -36 30 -84 -5 -26 -9 -32 -16 -22 -7 9 -8 3 -4 -19 3
-18 9 -48 12 -65 l5 -33 -16 25 -16 25 5 -30 c2 -16 7 -47 11 -67 5 -26 4 -38
-4 -38 -6 0 -11 8 -11 18 0 9 -8 34 -18 55 l-17 39 0 -76 c0 -46 -5 -80 -12
-87 -10 -10 -11 -1 -6 42 4 36 2 51 -4 44 -16 -16 -33 -75 -33 -114 -1 -20
-10 -54 -21 -76 l-20 -40 5 45 c3 25 8 61 11 80 l6 35 -16 -35 c-9 -19 -20
-62 -24 -95 -8 -59 -8 -59 -10 -15 -3 54 -15 33 -27 -45 l-8 -50 -5 39 -6 40
-23 -56 c-13 -31 -33 -64 -44 -74 -21 -19 -21 -19 -13 1 4 11 12 40 18 65 5
25 12 39 15 31 3 -8 16 6 33 35 34 59 37 74 7 48 l-21 -19 18 28 c10 15 21 53
24 85 l7 57 13 -44 13 -44 19 42 c10 24 19 62 19 85 0 22 5 48 10 56 7 11 10
7 10 -17 0 -37 20 -46 21 -10 0 12 6 38 14 57 10 28 14 32 20 18 4 -10 11 -18
16 -18 4 0 2 15 -5 33 -8 17 -17 43 -21 57 -6 24 -6 24 20 -5 17 -19 25 -24
21 -12 -3 11 -8 30 -11 43 -3 13 -7 35 -10 49 -6 28 2 30 39 13z m101 -97 c-4
-28 -11 -53 -16 -57 -13 -7 -11 73 2 98 16 30 22 15 14 -41z m-892 -65 c10
-20 16 -24 20 -15 3 8 6 3 6 -11 0 -14 -6 -36 -14 -50 l-14 -25 -1 35 c0 19
-9 49 -20 65 -11 17 -20 41 -20 55 l0 25 15 -25 c8 -14 21 -38 28 -54z m981
47 l15 -28 7 23 c4 13 12 21 18 19 13 -4 13 -5 -3 -96 -7 -40 -11 -91 -8 -112
6 -46 -11 -53 -19 -9 -9 43 -20 29 -35 -46 -14 -70 -27 -66 -28 9 -1 58 -21
34 -21 -26 -1 -54 -49 -188 -49 -137 -1 14 6 46 14 72 8 29 10 50 4 53 -5 4
-9 -2 -9 -12 0 -10 -10 -34 -22 -53 -12 -19 -30 -64 -40 -100 l-17 -65 2 53
c1 28 0 52 -3 52 -8 0 -39 -60 -49 -95 l-9 -30 -1 30 -1 30 -20 -25 c-11 -14
-20 -34 -21 -45 -1 -13 -4 -10 -8 10 l-7 30 -16 -30 c-9 -17 -20 -48 -24 -70
-7 -40 -24 -65 -43 -65 -6 0 -11 5 -11 10 0 6 6 10 13 10 8 0 17 21 23 50 6
27 9 50 7 50 -2 0 -12 -15 -23 -32 -15 -25 -20 -28 -20 -14 0 28 -15 9 -30
-39 -7 -22 -29 -60 -48 -85 -19 -25 -32 -37 -29 -27 4 10 7 27 7 36 0 10 11
23 25 29 14 7 25 20 25 31 0 11 10 41 21 68 12 26 25 59 29 73 l7 25 8 -30 c8
-29 9 -28 31 30 l23 60 1 -45 1 -45 24 40 c14 22 25 50 25 62 0 12 5 25 12 29
8 5 9 -5 5 -36 -7 -53 6 -41 27 25 l16 50 -4 -43 c-2 -23 0 -40 4 -37 8 5 34
77 43 120 3 15 6 12 12 -13 6 -24 10 -30 16 -20 12 18 11 121 -1 154 -9 23 -9
25 4 15 9 -7 18 -22 22 -34 5 -17 10 -12 26 31 11 29 24 52 29 52 12 0 12 -5
-5 -45 -8 -19 -11 -35 -7 -35 16 0 32 28 38 64 8 51 27 46 20 -5 -4 -31 -2
-38 6 -30 13 13 14 63 2 139 -9 58 -3 65 19 25z m-331 0 c-3 -10 -14 -36 -24
-59 -11 -23 -17 -48 -14 -57 4 -8 2 -17 -3 -20 -4 -3 -14 9 -21 28 -11 32 -10
37 14 62 14 16 28 36 31 46 3 9 9 17 14 17 5 0 7 -8 3 -17z m448 -31 c16 -14
20 -24 14 -38 -7 -17 -8 -17 -15 6 -5 22 -7 19 -12 -19 -11 -75 -28 -74 -28 2
0 37 4 67 9 67 5 0 19 -8 32 -18z m-1385 -13 c3 -6 14 -9 24 -6 14 4 19 -3 23
-32 6 -48 -6 -58 -31 -27 -11 14 -25 26 -30 26 -16 0 -23 16 -16 34 7 19 20
21 30 5z m1214 -14 c0 -14 -4 -25 -9 -25 -5 0 -24 -12 -41 -26 -17 -15 -33
-25 -35 -23 -2 3 -1 23 2 47 5 38 8 41 29 36 15 -4 24 -2 24 5 0 6 7 11 15 11
9 0 15 -9 15 -25z m295 -27 c19 -13 35 -31 35 -40 0 -10 5 -18 10 -18 6 0 10
-4 10 -10 0 -21 -18 -9 -30 20 -7 17 -26 38 -41 46 -16 8 -29 17 -29 19 0 9
10 5 45 -17z m88 -99 c4 1 7 -1 7 -4 0 -3 0 -10 0 -17 0 -7 -9 -3 -21 9 -13
13 -18 26 -13 34 6 10 9 8 14 -5 3 -10 9 -17 13 -17z m90 -7 c18 -20 13 -32
-11 -32 -12 0 -12 2 -1 16 12 15 11 16 -9 10 -17 -6 -21 -4 -16 8 8 21 17 20
37 -2z m-42 -27 c5 4 9 -3 9 -14 0 -19 -2 -20 -20 -9 -21 13 -25 29 -12 42 4
4 8 1 10 -8 2 -9 8 -14 13 -11z m-1477 -89 c9 -43 0 -43 -39 -1 -32 36 -44 72
-28 88 10 11 61 -55 67 -87z m916 61 c0 -23 -54 -97 -70 -97 -18 0 3 65 28 93
31 33 42 34 42 4z m677 -16 c13 -20 8 -31 -13 -31 -8 0 -11 6 -7 15 3 9 2 15
-3 14 -18 -3 -25 1 -19 11 10 16 29 12 42 -9z m-1617 -285 c-8 -8 -15 -6 -25
8 -20 26 -7 41 16 20 14 -13 16 -21 9 -28z m920 9 c-12 -15 -40 -21 -40 -8 0
3 8 15 17 25 21 23 43 7 23 -17z m-262 -60 c-36 -73 -55 -86 -32 -23 12 35 49
88 61 88 1 0 -12 -29 -29 -65z m-612 28 c15 -20 19 -53 6 -53 -4 0 -12 16 -18
35 -12 39 -8 44 12 18z m809 -28 c-13 -36 -21 -33 -15 5 2 16 21 43 26 37 2
-1 -3 -21 -11 -42z m-265 -100 c-9 -62 -30 -83 -23 -24 5 36 18 69 28 69 1 0
-1 -20 -5 -45z m-46 -41 c9 -33 -4 -47 -38 -42 l-26 3 22 32 c28 40 34 41 42
7z"/>
<path d="M1515 2260 c-4 -6 -11 -8 -16 -5 -5 4 -9 1 -9 -5 0 -7 -7 -9 -16 -6
-8 3 -12 2 -9 -3 10 -16 -15 -23 -32 -9 -13 10 -17 10 -20 1 -6 -17 -30 -17
-35 -1 -5 13 -67 -31 -103 -73 -11 -13 1 -7 27 14 26 20 49 33 52 28 3 -5 -14
-25 -39 -46 -25 -20 -45 -41 -45 -47 0 -6 8 -4 18 5 32 29 33 6 2 -26 -17 -17
-30 -35 -30 -40 0 -5 9 1 19 14 17 21 22 22 40 12 31 -19 39 -15 12 6 -13 10
-19 21 -14 24 13 8 59 -31 55 -46 -2 -6 6 -3 17 8 16 14 24 16 33 7 9 -9 15
-9 25 0 10 8 17 8 25 0 8 -8 19 -6 40 9 15 11 28 17 28 14 0 -4 9 3 19 16 20
24 20 24 53 6 l33 -18 -27 27 c-21 22 -30 25 -41 16 -14 -12 -27 -7 -27 11 0
5 7 7 15 3 10 -3 15 1 15 12 1 15 2 15 13 2 7 -8 24 -21 37 -28 19 -10 17 -6
-10 20 -20 18 -51 45 -70 59 -19 15 -32 30 -29 33 3 3 34 -17 68 -45 35 -28
65 -49 67 -46 4 3 -94 83 -123 100 -6 4 -14 3 -18 -3z m5 -28 c0 -4 14 -16 30
-26 17 -9 27 -22 24 -28 -5 -7 -11 -5 -19 5 -7 10 -17 17 -23 17 -6 0 -12 6
-15 13 -3 9 -7 9 -20 -1 -9 -8 -22 -10 -28 -6 -7 4 -9 3 -5 -4 7 -11 -12 -28
-21 -18 -10 10 18 36 39 36 10 0 16 5 13 10 -3 6 1 10 9 10 9 0 16 -4 16 -8z
m-110 -44 c0 -5 -7 -8 -15 -4 -8 3 -14 2 -14 -2 3 -16 -2 -23 -12 -17 -7 5 -4
13 7 26 17 18 34 17 34 -3z m124 -3 c28 -22 12 -30 -18 -10 -24 16 -26 16 -20
1 4 -11 1 -16 -10 -16 -19 0 -21 11 -4 28 16 16 29 15 52 -3z m-81 -18 c4 3 9
-2 13 -11 7 -17 34 -22 34 -6 0 6 7 10 15 10 8 0 15 -4 15 -10 0 -5 -7 -10
-15 -10 -19 0 -19 -16 0 -24 8 -3 14 0 12 6 -1 6 4 13 12 16 20 7 8 -20 -14
-32 -11 -6 -25 -17 -31 -25 -8 -10 -13 -11 -18 -2 -4 6 0 14 8 17 9 3 16 10
16 15 0 17 -23 9 -44 -16 l-21 -24 -23 24 c-14 14 -19 26 -12 30 5 3 13 -1 16
-9 3 -9 10 -16 16 -16 14 0 41 30 34 37 -3 4 -12 1 -18 -5 -15 -15 -28 -16
-28 -2 0 6 8 10 18 10 14 0 13 3 -6 18 -13 10 -19 21 -15 25 4 5 13 1 19 -7 6
-9 14 -13 17 -9z m-93 -19 c0 -5 -7 -8 -15 -4 -8 3 -14 2 -14 -2 3 -16 -2 -23
-12 -17 -7 5 -4 13 7 26 17 18 34 17 34 -3z m48 7 c-2 -6 -9 -9 -15 -7 -8 2
-10 -3 -6 -14 5 -13 3 -16 -10 -11 -11 4 -14 2 -10 -9 3 -7 11 -14 19 -14 8 0
14 -4 14 -10 0 -15 -17 -12 -40 7 -20 17 -20 17 7 45 26 27 48 34 41 13z"/>
<path d="M1580 2256 c0 -2 24 -23 53 -47 41 -34 46 -36 23 -11 -29 31 -25 45
4 20 8 -7 6 -3 -5 10 -11 13 -21 19 -23 12 -3 -7 -12 -6 -28 5 -13 8 -24 14
-24 11z"/>
<path d="M1943 2236 c3 -8 1 -16 -4 -18 -6 -2 -7 -11 -4 -21 5 -13 11 -14 25
-7 10 6 26 7 36 3 12 -4 15 -3 10 5 -4 7 -2 12 3 12 20 0 11 -29 -10 -35 -11
-4 -19 -8 -17 -10 2 -2 24 3 48 11 31 11 46 12 48 4 2 -6 16 -8 36 -5 27 6 32
3 33 -14 1 -12 -2 -21 -8 -21 -5 0 -9 6 -9 14 0 16 -36 11 -46 -6 -4 -6 2 -8
15 -3 12 4 21 2 21 -4 0 -6 -6 -11 -14 -11 -7 0 -19 -6 -25 -14 -9 -11 -2 -10
34 3 26 9 45 22 45 31 0 13 1 13 10 0 15 -23 13 -25 -26 -39 -19 -7 -34 -15
-31 -17 2 -2 23 3 47 11 50 18 50 18 50 5 0 -5 -6 -10 -13 -10 -7 0 -22 -7
-33 -15 -17 -13 -14 -13 25 0 51 17 51 17 51 7 0 -5 -12 -13 -27 -20 -28 -11
-9 -10 35 3 16 5 22 2 22 -10 0 -9 5 -13 10 -10 6 3 13 -1 16 -9 3 -9 10 -14
14 -11 4 3 11 -2 14 -11 4 -9 9 -14 13 -11 3 4 18 -2 32 -12 14 -10 55 -33 91
-50 36 -17 56 -25 46 -19 -149 98 -203 137 -270 193 -98 82 -113 89 -208 109
-94 19 -91 19 -85 2z"/>
<path d="M896 2206 c-59 -22 -186 -124 -186 -148 0 -6 8 -4 18 5 10 10 22 14
25 10 4 -3 7 -1 7 6 0 8 7 11 15 7 11 -4 15 2 15 20 0 19 4 25 15 20 8 -3 15
-1 15 4 0 15 57 12 63 -2 3 -7 6 2 6 20 1 29 4 33 24 30 15 -2 21 2 19 13 -1
9 8 21 20 27 40 19 5 12 -56 -12z"/>
<path d="M1019 2191 c7 -13 8 -22 1 -26 -5 -3 -10 -3 -10 2 0 4 -5 0 -11 -10
-6 -9 -15 -14 -21 -11 -6 4 -8 3 -5 -3 9 -14 -40 -46 -56 -36 -7 4 -4 -4 5
-19 19 -29 13 -44 -10 -25 -13 10 -14 9 -4 -8 6 -11 18 -29 27 -40 16 -20 16
-20 6 2 -21 43 -5 47 23 6 9 -16 15 -20 12 -10 -11 33 6 40 26 10 16 -23 18
-24 13 -5 -5 16 -2 22 10 22 11 0 15 -5 11 -16 -7 -17 2 -13 52 25 30 22 31
26 16 34 -16 9 -16 11 0 22 15 12 15 15 -1 46 -10 18 -24 39 -31 47 -10 11
-12 10 -10 -5 2 -10 -1 -18 -7 -18 -5 0 -9 2 -8 6 1 3 -7 11 -18 17 -18 12
-19 11 -10 -7z m33 -73 c-3 -17 27 -14 31 3 3 10 1 17 -3 14 -13 -8 -24 15
-12 27 14 14 36 -28 26 -50 -4 -9 -6 -23 -5 -30 1 -8 -6 -20 -16 -28 -23 -17
-36 -18 -30 -1 2 6 9 11 15 10 5 -1 13 4 16 12 3 9 0 15 -8 15 -8 0 -17 -7
-20 -16 -3 -8 -11 -12 -17 -8 -9 5 -7 11 6 20 14 10 15 17 7 27 -7 8 -9 17 -5
20 12 13 -12 6 -31 -8 -15 -11 -16 -17 -8 -28 12 -14 7 -27 -11 -27 -5 0 -7 7
-3 15 3 9 0 15 -8 15 -8 0 -16 -7 -20 -15 -3 -8 0 -14 6 -12 6 1 13 -4 15 -10
3 -7 -2 -13 -10 -13 -23 0 -33 41 -14 52 9 5 23 15 31 23 8 8 19 15 24 15 6 0
13 8 17 18 6 15 8 14 18 -8 5 -14 10 -28 9 -32z"/>
<path d="M565 1980 c-40 -41 -37 -48 10 -30 16 6 23 14 19 22 -5 8 -2 9 9 5
18 -7 22 9 9 30 -6 9 -19 1 -47 -27z"/>
<path d="M1897 1975 c-25 -32 -26 -35 -8 -35 12 0 23 11 30 32 15 43 10 43
-22 3z"/>
<path d="M1953 1982 c-20 -27 -20 -29 -3 -40 16 -9 19 -8 18 6 -1 9 2 27 6 40
10 29 4 28 -21 -6z"/>
<path d="M1974 1876 c21 -25 40 -46 43 -46 11 0 -35 63 -56 77 -19 12 -16 5
13 -31z"/>
<path d="M2020 1872 c11 -15 27 -52 35 -82 l14 -55 -24 28 c-15 17 -25 22 -25
14 0 -21 37 -65 61 -72 11 -4 29 -21 40 -38 15 -26 19 -28 19 -12 0 11 -14 40
-30 64 -17 24 -30 49 -30 55 0 6 12 -7 26 -27 14 -21 28 -36 31 -33 7 7 -54
112 -90 152 -35 41 -56 45 -27 6z"/>
<path d="M2010 1672 c0 -5 11 -23 24 -41 13 -18 29 -46 35 -62 6 -16 16 -42
22 -59 6 -16 16 -30 21 -30 5 0 6 5 2 12 -4 6 -11 28 -14 47 -4 20 -11 45 -16
56 -7 18 -6 19 9 6 15 -12 17 -12 11 3 -7 17 -94 80 -94 68z"/>
<path d="M1940 1622 c0 -15 31 -51 72 -83 24 -19 37 -25 28 -14 -22 31 -100
106 -100 97z"/>
<path d="M2210 1532 c0 -5 16 -31 35 -58 43 -61 47 -45 4 19 -31 46 -39 55
-39 39z"/>
<path d="M1880 1505 c6 -16 19 -38 28 -48 9 -11 22 -31 29 -45 9 -22 11 -23
11 -7 1 28 -8 46 -46 91 -32 37 -32 38 -22 9z"/>
<path d="M1364 1563 c23 -4 26 -7 15 -14 -10 -7 -5 -8 16 -4 17 3 24 2 18 -1
-19 -9 -16 -24 4 -17 13 5 15 2 10 -12 -6 -15 -5 -16 8 -5 12 10 15 9 15 -6 0
-16 2 -17 10 -4 13 20 13 33 0 25 -5 -3 -10 -1 -10 5 0 14 -63 40 -92 39 -18
-2 -16 -3 6 -6z"/>
<path d="M1585 1556 l-30 -13 25 -13 c24 -13 24 -12 10 5 -14 17 -13 18 8 13
12 -4 20 -2 17 2 -3 5 5 11 17 13 19 4 20 4 3 5 -11 1 -33 -5 -50 -12z"/>
<path d="M1215 1530 c-10 -11 -19 -31 -20 -44 -2 -14 -6 -30 -10 -35 -3 -6 -1
-11 6 -11 8 0 8 -4 -1 -15 -7 -9 -11 -18 -8 -20 3 -3 20 14 38 38 28 35 29 38
7 18 -15 -14 -27 -19 -27 -13 0 6 4 14 10 17 5 3 15 16 21 28 l12 22 -23 -20
c-27 -23 -18 -3 13 33 11 12 16 22 10 22 -5 0 -18 -9 -28 -20z"/>
<path d="M1750 1544 c0 -6 9 -19 20 -29 28 -25 25 -43 -2 -19 -23 19 -23 19
-5 -2 23 -28 21 -37 -5 -23 l-23 12 20 -22 c11 -13 21 -18 23 -11 3 8 8 8 18
-1 9 -8 14 -8 14 -1 0 6 -5 14 -11 18 -8 5 -8 9 1 14 8 5 3 17 -19 41 -17 19
-31 29 -31 23z"/>
<path d="M1540 1531 c0 -6 -6 -10 -12 -8 -8 1 -14 -10 -15 -28 -2 -29 -2 -29
7 -5 4 14 8 19 9 13 1 -7 5 -13 11 -13 5 0 6 8 3 18 -6 15 -5 15 10 3 9 -7 17
-9 17 -3 0 5 -7 15 -15 22 -10 9 -15 9 -15 1z"/>
<path d="M1236 1375 c-15 -20 -26 -40 -24 -46 2 -6 16 8 31 32 34 52 29 62 -7
14z"/>
<path d="M1743 1370 c15 -25 32 -47 38 -49 15 -5 -20 55 -45 77 -15 13 -13 7
7 -28z"/>
<path d="M1255 1355 c-15 -19 -25 -40 -23 -47 2 -6 16 9 30 35 31 56 29 60 -7
12z"/>
<path d="M1713 1372 c8 -9 20 -29 26 -45 6 -15 15 -27 21 -27 6 0 4 11 -5 28
-20 36 -40 62 -50 62 -5 0 -1 -8 8 -18z"/>
<path d="M1307 1347 c-24 -36 -21 -47 4 -17 16 19 19 20 15 6 -6 -16 -4 -17 9
-6 16 13 21 35 6 26 -5 -4 -11 -1 -13 5 -2 7 -12 0 -21 -14z"/>
<path d="M1190 1271 c-16 -30 -12 -49 13 -62 20 -11 21 -11 8 4 -7 10 -11 30
-9 47 5 35 3 37 -12 11z"/>
<path d="M1302 1260 c-29 -4 -56 -11 -60 -15 -4 -4 8 -6 26 -3 23 3 32 1 32
-9 0 -8 5 -11 10 -8 6 3 10 -3 10 -14 0 -11 5 -23 11 -27 8 -4 9 0 4 15 -9 28
9 27 30 -1 16 -23 16 -23 10 7 -4 25 -4 26 4 9 13 -29 31 -39 31 -18 0 16 1
16 16 -2 15 -18 15 -18 8 5 -4 16 -3 21 5 17 6 -4 11 -15 11 -24 0 -9 5 -24
11 -32 7 -11 9 -3 4 30 l-6 45 16 -28 c16 -28 17 -28 36 -11 19 17 20 17 13
-1 -5 -13 -4 -16 4 -11 7 4 12 2 12 -3 0 -6 4 -11 9 -11 5 0 7 9 4 20 -3 12 0
20 7 20 7 0 10 7 6 16 -4 9 -2 13 5 8 6 -3 9 -17 7 -29 -4 -21 -3 -22 19 -12
12 5 23 14 23 19 0 4 18 -3 40 -17 49 -31 54 -19 6 13 -40 27 -118 53 -155 51
-14 -1 -55 1 -91 4 -36 3 -89 2 -118 -3z"/>
<path d="M1216 1140 c21 -79 63 -129 136 -160 62 -28 197 -33 263 -11 49 16
108 59 99 72 -3 5 0 8 7 7 14 -4 45 46 54 87 5 20 -2 13 -19 -22 -30 -63 -41
-69 -21 -13 19 53 11 51 -13 -2 -11 -24 -27 -52 -36 -63 -16 -20 -16 -20 -10
0 5 17 3 16 -16 -5 -19 -22 -20 -22 -11 -3 6 12 16 34 21 50 9 26 9 27 -5 9
-8 -11 -15 -25 -15 -30 0 -6 -9 -22 -20 -36 l-20 -25 16 39 c21 51 12 57 -11
6 -22 -49 -40 -54 -19 -5 8 19 12 35 9 35 -3 0 -12 -18 -21 -40 -9 -22 -20
-40 -25 -40 -6 0 -5 8 1 19 5 11 10 26 10 33 0 7 -8 -3 -18 -22 -21 -43 -45
-46 -53 -5 l-6 30 -2 -35 -3 -35 -14 30 -15 30 6 -27 c8 -38 -1 -35 -24 10
-22 40 -27 39 -11 -2 14 -38 3 -32 -19 12 -11 20 -20 31 -21 24 0 -7 5 -23 12
-35 10 -20 10 -21 -5 -8 -14 11 -17 11 -17 0 0 -8 -6 -5 -15 7 -8 10 -15 15
-15 10 0 -5 -7 -3 -15 4 -12 10 -15 10 -15 -1 0 -8 -6 -5 -14 7 -8 10 -20 19
-28 19 -7 0 -26 25 -41 55 -15 30 -25 44 -21 30z"/>
<path d="M1280 1122 c0 -19 29 -86 35 -80 3 3 -4 25 -15 49 -11 24 -20 38 -20
31z"/>
<path d="M1270 2743 c0 -7 -12 -13 -27 -14 -16 0 -22 -3 -15 -6 6 -2 12 -9 12
-15 0 -6 -7 -8 -15 -4 -8 3 -15 1 -15 -4 0 -6 9 -10 20 -10 11 0 20 -4 20 -10
0 -12 2 -12 -37 -1 -32 9 -32 9 -27 -25 2 -19 -1 -34 -6 -34 -6 0 -10 9 -10
19 0 11 -4 22 -8 25 -4 2 -6 -10 -4 -27 3 -26 8 -32 28 -32 19 0 23 4 18 19
-5 15 -3 18 10 13 10 -4 16 -1 16 8 0 19 16 20 23 2 7 -18 -8 -41 -21 -33 -5
3 -9 -2 -8 -12 0 -10 -5 -16 -14 -13 -8 2 -25 3 -37 3 -15 0 -26 10 -32 27 -9
23 -10 22 -6 -11 3 -22 1 -38 -5 -38 -6 0 -10 10 -10 23 0 12 -5 29 -11 37 -8
12 -9 10 -5 -10 3 -14 6 -38 6 -55 0 -18 3 -25 8 -18 4 7 17 10 30 6 24 -6 29
-19 10 -26 -8 -3 -9 -6 -2 -6 17 -1 101 76 134 124 16 23 31 55 35 71 4 22 3
24 -4 9 -8 -19 -9 -19 -13 5 -4 19 -6 15 -8 -15 -1 -22 -4 -33 -7 -24 -3 11
-11 15 -24 12 -10 -3 -19 -1 -19 5 0 6 9 12 20 14 15 2 17 7 10 18 -6 10 -10
11 -10 3z"/>
<path d="M1438 2731 c-7 -25 -7 -25 -30 -6 -13 11 -18 14 -12 6 13 -14 -3 -71
-20 -71 -5 0 -1 -9 9 -20 21 -23 13 -39 -10 -20 -8 7 -15 8 -15 3 0 -9 37 -39
70 -58 11 -6 12 -5 4 4 -12 13 3 61 19 61 4 0 3 -9 -3 -21 -7 -11 -9 -23 -6
-27 3 -3 6 -2 6 2 0 4 9 2 20 -4 16 -9 18 -8 14 5 -7 17 0 19 26 5 15 -8 17
-7 13 11 -5 19 -4 20 16 9 13 -6 25 -9 28 -7 2 3 -5 8 -16 12 -12 3 -21 13
-21 21 0 12 4 13 23 4 19 -10 18 -7 -5 14 -31 28 -36 41 -13 32 24 -9 17 1
-20 30 -28 21 -38 24 -49 15 -11 -10 -15 -8 -18 6 -3 14 -5 13 -10 -6z m73
-44 c-14 -14 -15 -40 -1 -32 6 3 10 1 10 -5 0 -7 -7 -10 -15 -6 -8 3 -15 1
-15 -4 0 -6 5 -10 10 -10 6 0 10 -5 10 -11 0 -6 -9 -8 -21 -4 -14 5 -19 3 -15
-3 3 -6 1 -14 -5 -18 -9 -5 -10 1 -5 20 4 15 2 26 -4 26 -5 0 -10 5 -10 11 0
6 9 8 20 4 11 -4 20 -3 19 2 -1 4 0 11 1 16 2 7 6 21 9 33 0 3 6 2 12 -2 8 -4
8 -9 0 -17z m-61 -16 c0 -6 -4 -12 -9 -16 -5 -3 -12 -19 -16 -35 -4 -17 -11
-30 -16 -30 -12 0 -12 17 0 25 5 3 12 19 16 35 6 27 25 43 25 21z"/>
<path d="M1606 2700 c8 -67 32 -101 99 -137 64 -35 80 -40 69 -21 -5 8 2 9 24
5 17 -4 34 -2 37 3 4 6 -1 7 -11 3 -11 -4 -15 -2 -11 4 5 7 -4 8 -28 3 -36 -8
-79 10 -61 27 5 4 11 2 13 -4 5 -15 52 -17 73 -3 8 5 10 10 4 10 -7 0 -15 12
-19 28 -7 25 -8 25 -15 7 -7 -19 -8 -18 -12 5 -5 22 -5 21 -7 -7 -1 -25 2 -31
14 -27 8 4 15 2 15 -3 0 -5 -9 -9 -20 -10 -17 -2 -20 5 -21 45 0 26 -3 41 -6
35 -9 -23 -23 -13 -23 16 0 29 -2 30 -45 28 -31 -1 -45 -6 -48 -17 -2 -8 -9 0
-15 20 l-12 35 6 -45z m74 -22 c0 -6 -7 -8 -15 -4 -11 4 -15 -2 -15 -22 0 -18
-3 -23 -9 -14 -4 7 -6 24 -4 36 4 17 10 22 24 19 10 -3 19 -10 19 -15z"/>
<path d="M948 1861 c-39 -46 -101 -151 -88 -151 4 0 17 15 29 33 11 17 21 26
21 19 0 -7 -11 -30 -25 -50 -14 -20 -25 -46 -25 -57 0 -16 4 -14 19 12 11 17
29 34 40 38 24 7 61 51 61 72 0 8 -10 3 -25 -14 l-24 -28 14 55 c8 30 24 67
35 82 31 42 6 34 -32 -11z"/>
<path d="M946 1651 c-21 -15 -43 -36 -49 -47 -9 -17 -9 -18 6 -5 19 15 21 10
8 -17 -5 -9 -13 -36 -18 -60 -9 -35 -8 -40 3 -31 8 6 18 28 24 49 5 20 20 52
33 71 20 30 41 71 34 68 -1 0 -19 -13 -41 -28z"/>
<path d="M1002 1576 c-29 -30 -52 -58 -52 -61 0 -11 81 57 97 82 29 44 6 34
-45 -21z"/>
<path d="M753 1498 c-49 -81 -51 -101 -4 -29 23 35 41 67 39 72 -2 6 -18 -14
-35 -43z"/>
<path d="M1111 1524 c0 -6 -14 -28 -31 -49 -16 -21 -30 -50 -30 -64 0 -26 0
-26 18 6 9 17 25 43 35 57 10 14 17 33 14 43 -3 10 -5 13 -6 7z"/>
<path d="M2700 720 c0 -5 -8 -10 -18 -10 -11 0 -24 -11 -30 -24 -9 -20 -7 -28
6 -44 9 -11 28 -33 41 -50 13 -18 27 -29 32 -26 5 2 17 -4 29 -16 11 -11 20
-15 20 -9 0 8 6 7 17 -2 15 -13 15 -12 5 8 -7 12 -17 25 -22 28 -6 3 -10 11
-10 17 0 6 10 3 23 -8 l22 -19 -22 26 c-27 30 -30 47 -5 28 16 -13 16 -13 -1
7 -9 11 -14 24 -10 29 5 4 2 5 -4 1 -7 -4 -14 -2 -14 3 -1 6 -2 17 -3 24 -2
13 -20 14 -49 2 -13 -6 -16 -4 -11 9 4 10 13 15 20 12 7 -3 16 -1 19 3 3 5 -2
12 -11 15 -21 8 -24 8 -24 -4z m47 -45 c0 -8 -6 -16 -14 -19 -7 -3 -13 -17
-13 -31 0 -16 -4 -24 -11 -20 -6 4 -7 14 -4 24 4 9 8 22 9 29 2 10 22 30 32
32 0 0 1 -7 1 -15z m7 -41 c10 -27 7 -44 -8 -38 -8 3 -13 16 -12 30 1 27 11
32 20 8z"/>
<path d="M1560 616 c8 -21 8 -38 -1 -63 -11 -35 -6 -83 10 -83 5 0 12 30 16
66 6 60 5 69 -15 88 l-21 21 11 -29z"/>
<path d="M1516 581 c-20 -69 -20 -73 5 -105 26 -33 47 -34 25 -1 -19 29 -20
55 -4 89 8 18 8 33 1 48 -10 21 -12 18 -27 -31z"/>
<path d="M1623 508 c-21 -23 -40 -128 -24 -128 12 0 31 48 31 78 0 15 7 38 16
50 20 29 3 29 -23 0z"/>
</g>
</svg>
